<?xml version="1.0" encoding="UTF-8" standalone="no"?>
<svg
   xmlns:dc="http://purl.org/dc/elements/1.1/"
   xmlns:cc="http://creativecommons.org/ns#"
   xmlns:rdf="http://www.w3.org/1999/02/22-rdf-syntax-ns#"
   xmlns:svg="http://www.w3.org/2000/svg"
   xmlns="http://www.w3.org/2000/svg"
   xmlns:sodipodi="http://sodipodi.sourceforge.net/DTD/sodipodi-0.dtd"
   xmlns:inkscape="http://www.inkscape.org/namespaces/inkscape"
   sodipodi:docname="goldcup_flat.svg"
   inkscape:version="1.0rc1 (09960d6f05, 2020-04-09)"
   id="svg1372"
   version="1.1"
   viewBox="0 0 41.479378 52.845825"
   height="199.73225"
   width="156.77245">
  <defs
     id="defs1366" />
  <sodipodi:namedview
     inkscape:window-maximized="1"
     inkscape:window-y="-9"
     inkscape:window-x="-9"
     inkscape:window-height="1361"
     inkscape:window-width="2560"
     units="px"
     fit-margin-bottom="0"
     fit-margin-right="0"
     fit-margin-left="0"
     fit-margin-top="0"
     inkscape:pagecheckerboard="true"
     showgrid="false"
     inkscape:document-rotation="0"
     inkscape:current-layer="layer1"
     inkscape:document-units="mm"
     inkscape:cy="98.774326"
     inkscape:cx="43.660417"
     inkscape:zoom="3.959798"
     inkscape:pageshadow="2"
     inkscape:pageopacity="0.0"
     borderopacity="1.0"
     bordercolor="#666666"
     pagecolor="#ffffff"
     id="base" />
  <metadata
     id="metadata1369">
    <rdf:RDF>
      <cc:Work
         rdf:about="">
        <dc:format>image/svg+xml</dc:format>
        <dc:type
           rdf:resource="http://purl.org/dc/dcmitype/StillImage" />
        <dc:title></dc:title>
      </cc:Work>
    </rdf:RDF>
  </metadata>
  <g
     transform="translate(-60.147214,-80.922323)"
     id="layer1"
     inkscape:groupmode="layer"
     inkscape:label="Layer 1">
    <path
       id="path48-0"
       style="fill:#ffffff;fill-opacity:1;stroke-width:0.0585393"
       d="m 65.964703,81.453003 c 0.002,0.8035 0.0296,1.60658 0.0661,2.40916 -1.90857,0 -3.81717,0 -5.72574,0 -0.0871,1.03291 -0.19344,2.05818 -0.14624,3.09851 0.0888,2.47287 0.55219,4.92598 1.28678,7.28618 0.71591,2.23655 1.88798,4.37073 3.63085,5.971097 1.81118,1.69095 4.13737,2.71529 6.50639,3.35444 0.15071,0.0539 0.34944,0.0371 0.4118,0.21587 1.10122,1.58867 2.46761,3.02082 4.11927,4.04142 -0.40846,0.35171 -0.56134,0.90966 -0.51885,1.433 -0.055,0.61537 0.24109,1.25627 0.78764,1.56214 0.50964,0.3182 1.12948,0.19142 1.69635,0.21707 0.12303,0.0402 0.4073,-0.0981 0.38288,0.10529 0.0892,0.58828 0.002,1.20037 -0.28615,1.72455 -0.56533,1.07316 -1.38255,1.98477 -2.17347,2.89472 -1.37726,1.54105 -2.83051,3.01187 -4.28969,4.47488 -0.87884,0 -1.75768,0 -2.63652,0 0,3.37912 0,6.75824 0,10.13737 -0.41204,0 -0.82407,0 -1.23611,0 0,1.12981 0,2.25963 0,3.38945 8.69921,0 17.39842,0 26.097629,0 0,-1.12982 0,-2.25964 0,-3.38945 -0.412189,0 -0.824417,0 -1.236609,0 0,-3.37913 0,-6.75825 0,-10.13737 -0.864709,0 -1.729449,0 -2.59416,0 -1.76861,-1.78246 -3.54973,-3.55981 -5.1599,-5.48927 -0.59598,-0.75134 -1.23,-1.51631 -1.53012,-2.44203 -0.12464,-0.41149 -0.0987,-0.84687 -0.0491,-1.26814 0.51572,-0.0166 1.03642,0.0362 1.54874,-0.032 0.75747,-0.1423 1.32394,-0.89134 1.26658,-1.65818 0.0279,-0.46886 -0.031,-0.97113 -0.34777,-1.34162 -0.11273,-0.11421 -0.22928,-0.20514 -0.0233,-0.27281 1.630599,-1.04396 2.976929,-2.48561 4.061279,-4.07991 2.393759,-0.61293 4.753821,-1.59456 6.620271,-3.25045 1.746539,-1.529576 2.958889,-3.589466 3.707227,-5.770626 0.59492,-1.75836 0.99404,-3.58147 1.23574,-5.42106 0.19373,-1.53171 0.2622,-3.09301 0.097,-4.62414 -0.0201,-0.24297 -0.0402,-0.48593 -0.0604,-0.72889 -1.908757,0 -3.817516,0 -5.726279,0 0.0472,-0.979231 0.0714,-1.959461 0.0682,-2.939881 -9.950631,0 -19.901271,0 -29.851901,0 5.03e-4,0.17691 10e-4,0.35381 0.002,0.53072 z m 0.24442,5.08961 c 0.29367,3.45903 1.02527,6.88597 2.25013,10.13699 0.42722,1.14641 0.90929,2.27224 1.43597,3.376397 -1.61629,-0.742857 -3.14132,-1.779577 -4.20209,-3.229297 -1.15548,-1.53662 -1.76577,-3.39526 -2.20442,-5.24572 -0.4005,-1.64826 -0.66908,-3.33831 -0.65405,-5.03837 1.12482,0 2.24964,0 3.37446,0 z m 32.733411,0 c 0.0164,2.29506 -0.46509,4.56365 -1.122231,6.75232 -0.57386,1.85561 -1.533789,3.64266 -3.022179,4.92307 -0.865981,0.76384 -1.87248,1.35111 -2.915631,1.837997 1.62724,-3.389297 2.7912,-7.007897 3.352141,-10.728567 0.142899,-0.92417 0.251409,-1.85343 0.33446,-2.78482 1.124479,0 2.248961,0 3.37344,0 z"
       inkscape:connector-curvature="0" />
    <path
       id="path48"
       d="m 66.493803,81.451603 c 0,0 -0.006,1.13133 0.0943,2.93989 h -5.79584 l -0.0615,0.74421 c -0.0155,0.18615 -0.36098,3.28405 0.96005,8.08409 1.68095,6.10797 5.31348,8.665387 10.53822,9.974907 1.37531,2.06134 3.08015,3.74206 5.194,4.74817 h -0.24364 c -0.58028,0 -1.05518,0.47481 -1.05518,1.05506 v 0.45939 c 0,0.58027 0.47493,1.05517 1.05518,1.05517 h 1.74943 c 0.19934,2.12468 1.3131,1.97155 -6.55521,9.81697 h 6.82566 1.21721 9.02966 c -7.86824,-7.84542 -6.75482,-7.692 -6.55521,-9.81697 h 1.70771 c 0.58026,0 1.05516,-0.47493 1.05516,-1.05517 v -0.45939 c 0,-0.58027 -0.47493,-1.05506 -1.05516,-1.05506 h -0.24354 c 2.11379,-1.00611 3.818619,-2.68683 5.194011,-4.74817 5.22461,-1.30935 8.856969,-3.866817 10.538206,-9.974907 1.32105,-4.80015 0.97555,-7.89794 0.96004,-8.08409 l -0.0615,-0.74421 h -5.795838 c 0.10042,-1.80856 0.0943,-2.93989 0.0943,-2.93989 h -14.39477 -2.4e-4 -14.39477 z m -4.18029,4.56172 h 4.38219 c 0.36741,4.69771 1.40195,9.4479 4.31053,15.093407 -3.78631,-1.496147 -6.38486,-3.386627 -7.74005,-8.277277 -0.94716,-3.41635 -0.98989,-5.38426 -0.95243,-6.81613 z m 32.767871,0 h 4.382299 c 0.0376,1.43192 -0.005,3.40013 -0.952298,6.81613 -1.355191,4.89071 -3.953161,6.78102 -7.740052,8.277277 2.9088,-5.645507 3.943191,-10.395647 4.310231,-15.093407 z M 69.605163,120.77057 v 11.15111 h 22.566831 v -11.15111 z"
       fill="#fdd22b"
       inkscape:connector-curvature="0"
       style="stroke-width:0.0585393"
       sodipodi:nodetypes="ccccsccssssccccccsssscccccccccccccccccccccccccccc" />
    <path
       id="path60"
       d="m 89.465153,121.37862 h -17.1527 c -0.36631,0 -0.66603,-0.29971 -0.66603,-0.66602 v -0.28989 c 0,-0.3663 0.29971,-0.66602 0.66603,-0.66602 h 17.1527 c 0.366311,0 0.66602,0.29972 0.66602,0.66602 v 0.28989 c 0,0.36631 -0.299709,0.66602 -0.66602,0.66602"
       fill="#f26c46"
       inkscape:connector-curvature="0"
       style="stroke-width:0.073174" />
    <path
       id="path64"
       d="m 93.408493,133.23924 h -25.0394 v -2.33154 h 25.0394 z"
       fill="#f04e38"
       inkscape:connector-curvature="0"
       style="stroke-width:0.073174" />
    <path
       id="path66"
       d="m 88.998293,129.94803 h -16.21973 v -8.01474 h 16.21973 z"
       fill="#e7e8e9"
       inkscape:connector-curvature="0"
       style="stroke-width:0.073174" />
  </g>
</svg>
